<svg width="10" height="14" viewBox="0 0 10 14" fill="none" xmlns="http://www.w3.org/2000/svg">
<path d="M4.85026 0.517334C2.3717 0.517334 0.362305 2.52657 0.362305 5.00529C0.362305 7.484 4.85026 13.9543 4.85026 13.9543C4.85026 13.9543 9.33837 7.48384 9.33837 5.00529C9.33837 2.52673 7.32897 0.517334 4.85026 0.517334ZM4.85026 7.34706C4.37058 7.34703 3.90168 7.20476 3.50285 6.93824C3.10403 6.67173 2.79319 6.29293 2.60965 5.84975C2.4261 5.40658 2.37809 4.91893 2.47169 4.44847C2.56529 3.97801 2.7963 3.54587 3.13549 3.20669C3.47469 2.86752 3.90685 2.63654 4.37731 2.54297C4.84778 2.44941 5.33542 2.49744 5.77859 2.68102C6.22175 2.86459 6.60053 3.17545 6.86702 3.57429C7.13351 3.97314 7.27575 4.44204 7.27575 4.92172C7.27581 5.24028 7.21312 5.55574 7.09126 5.85006C6.96939 6.14439 6.79074 6.41183 6.56551 6.63711C6.34027 6.86239 6.07287 7.04109 5.77856 7.16301C5.48426 7.28493 5.16882 7.34769 4.85026 7.34769V7.34706Z" fill="#FF0068" style="mix-blend-mode:multiply"/>
</svg>
