<svg width="13" height="14" viewBox="0 0 13 14" fill="none" xmlns="http://www.w3.org/2000/svg">
<path d="M4.61029 5.05545L5.02231 4.57938C5.18994 4.38665 5.31947 4.16134 5.40349 3.91633C5.48752 3.67133 5.52439 3.41145 5.51199 3.15157C5.4996 2.89169 5.43818 2.6369 5.33125 2.40181C5.22432 2.16671 5.07398 1.95592 4.88884 1.78148L4.19055 1.12387C3.81706 0.771315 3.32457 0.587919 2.82143 0.614021C2.31829 0.640124 1.84571 0.873585 1.50762 1.26305L1.09561 1.74114C1.04006 1.80444 0.98898 1.87185 0.942789 1.94286L0.923451 1.96505C0.536584 2.31202 0.201946 3.15926 0.393445 4.1941C0.835518 6.55136 1.99791 8.69587 3.70658 10.3065C5.41526 11.9171 7.57826 12.9072 9.87169 13.1284C10.4383 13.1945 11.0102 13.0701 11.5043 12.7734C11.6774 12.6694 11.834 12.5381 11.9685 12.3841L12.3824 11.906C12.7198 11.516 12.895 11.0024 12.8696 10.4778C12.8442 9.95328 12.6203 9.46066 12.247 9.10807L11.5507 8.45046C11.3658 8.27577 11.1496 8.14083 10.9146 8.05337C10.6796 7.9659 10.4303 7.92764 10.1811 7.94075C9.93193 7.95387 9.68766 8.01811 9.46229 8.12981C9.23693 8.2415 9.0349 8.39844 8.86777 8.59166L8.45381 9.06773C8.28039 9.26954 8.1487 9.50644 8.06695 9.76367L8.03019 9.87866L7.92187 9.83428C6.07498 9.07989 4.56256 7.63708 3.67794 5.78569L3.61991 5.66264L3.74564 5.62431C4.07796 5.51991 4.37683 5.32328 4.61029 5.05545Z" fill="#FF0068"/>
</svg>
