<svg width="10" height="17" viewBox="0 0 10 17" fill="none" xmlns="http://www.w3.org/2000/svg">
<g clip-path="url(#clip0)">
<path d="M8.08005 0.5259C8.28314 0.5261 8.48161 0.586901 8.65042 0.700701C8.81923 0.814501 8.95079 0.9761 9.02849 1.1652C9.10619 1.3543 9.12654 1.5624 9.08696 1.7631C9.04739 1.9639 8.94968 2.1483 8.80616 2.2931L2.86019 8.29205C2.80577 8.34616 2.76262 8.41066 2.73321 8.48178C2.70381 8.55289 2.68875 8.6292 2.68894 8.70625C2.6886 8.78434 2.70356 8.86172 2.73294 8.93398C2.76233 9.00624 2.80557 9.07195 2.86019 9.12734L8.81986 15.1194C9.01335 15.3134 9.1224 15.577 9.12304 15.8521C9.12369 16.1272 9.01587 16.3913 8.82329 16.5863C8.63071 16.7813 8.36915 16.8912 8.09616 16.8918C7.82318 16.8925 7.56111 16.7838 7.36762 16.5898L1.42167 10.5908C1.16656 10.3481 0.96237 10.0562 0.82117 9.73247C0.679981 9.40877 0.604641 9.05981 0.599641 8.70625C0.597791 8.35705 0.665341 8.011 0.798281 7.68852C0.931221 7.36603 1.12687 7.07364 1.37371 6.8286L7.31967 0.829599C7.41973 0.730199 7.53862 0.652099 7.66924 0.599899C7.79987 0.547699 7.93957 0.5226 8.08005 0.5259Z" fill="white"/>
</g>
<defs>
<clipPath id="clip0">
<rect width="10" height="17" fill="white" transform="translate(10 17) rotate(-180)"/>
</clipPath>
</defs>
</svg>
