<svg width="10" height="17" viewBox="0 0 10 17" fill="none" xmlns="http://www.w3.org/2000/svg">
<path d="M1.91995 16.4741C1.71686 16.4739 1.51839 16.4131 1.34958 16.2993C1.18077 16.1855 1.04921 16.0239 0.97151 15.8348C0.893813 15.6457 0.873466 15.4376 0.913038 15.2369C0.952611 15.0361 1.05032 14.8517 1.19384 14.7069L7.13981 8.70795C7.19423 8.65384 7.23738 8.58934 7.26679 8.51822C7.29619 8.44711 7.31125 8.3708 7.31106 8.29375C7.3114 8.21566 7.29644 8.13828 7.26706 8.06602C7.23767 7.99376 7.19443 7.92805 7.13981 7.87266L1.18014 1.88063C0.986655 1.68656 0.877598 1.42299 0.876956 1.14788C0.876314 0.872775 0.984135 0.608679 1.17671 0.413693C1.36929 0.218707 1.63085 0.108804 1.90384 0.108157C2.17682 0.10751 2.43889 0.216167 2.63238 0.410238L8.57833 6.40917C8.83344 6.65194 9.03763 6.94382 9.17883 7.26753C9.32002 7.59123 9.39536 7.94019 9.40036 8.29375C9.40221 8.64295 9.33466 8.989 9.20172 9.31148C9.06878 9.63397 8.87313 9.92636 8.62629 10.1714L2.68033 16.1704C2.58027 16.2698 2.46138 16.3479 2.33076 16.4001C2.20013 16.4523 2.06043 16.4774 1.91995 16.4741Z" fill="white"/>
</svg>
