<svg width="8" height="15" viewBox="0 0 8 15" fill="none" xmlns="http://www.w3.org/2000/svg">
<path d="M1.28224 14.4604C1.11424 14.4603 0.950054 14.41 0.810408 14.3158C0.670762 14.2217 0.561928 14.088 0.497655 13.9316C0.433381 13.7751 0.416549 13.603 0.449285 13.4369C0.482021 13.2709 0.562846 13.1183 0.681571 12.9985L5.60031 8.03597C5.64533 7.9912 5.68103 7.93785 5.70535 7.87901C5.72968 7.82018 5.74214 7.75706 5.74198 7.69332C5.74226 7.62872 5.72989 7.56471 5.70558 7.50493C5.68127 7.44516 5.6455 7.3908 5.60031 7.34497L0.670244 2.38814C0.510184 2.2276 0.419967 2.00955 0.419436 1.78198C0.418905 1.5544 0.508099 1.33593 0.667408 1.17463C0.826716 1.01333 1.04308 0.922413 1.26891 0.921877C1.49474 0.921342 1.71153 1.01123 1.87159 1.17177L6.79031 6.13432C7.00135 6.33515 7.17027 6.5766 7.28707 6.84439C7.40387 7.11217 7.46619 7.40084 7.47033 7.69332C7.47186 7.9822 7.41598 8.26846 7.30601 8.53523C7.19603 8.802 7.03418 9.04388 6.82999 9.24662L1.91126 14.2092C1.82848 14.2914 1.73014 14.356 1.62208 14.3992C1.51402 14.4424 1.39845 14.4632 1.28224 14.4604Z" fill="white"/>
</svg>
