<svg width="8" height="14" viewBox="0 0 8 14" fill="none" xmlns="http://www.w3.org/2000/svg">
<path d="M6.52391 0.10685C6.69192 0.106998 6.8561 0.15732 6.99575 0.251454C7.13539 0.345589 7.24423 0.47931 7.3085 0.635739C7.37277 0.79217 7.3896 0.964286 7.35687 1.13035C7.32413 1.29641 7.24331 1.44898 7.12458 1.56877L2.20584 6.53132C2.16082 6.57609 2.12512 6.62945 2.1008 6.68828C2.07647 6.74711 2.06401 6.81023 2.06417 6.87397C2.06389 6.93857 2.07626 7.00258 2.10057 7.06236C2.12488 7.12213 2.16065 7.17649 2.20584 7.22232L7.13591 12.1792C7.29597 12.3397 7.38619 12.5577 7.38672 12.7853C7.38725 13.0129 7.29805 13.2314 7.13874 13.3927C6.97944 13.554 6.76307 13.6449 6.53724 13.6454C6.31141 13.6459 6.09462 13.5561 5.93456 13.3955L1.01584 8.43297C0.804802 8.23214 0.635884 7.99069 0.519082 7.7229C0.40228 7.45512 0.339962 7.16645 0.335823 6.87397C0.334293 6.58509 0.390171 6.29883 0.500146 6.03206C0.610121 5.76529 0.771971 5.52341 0.976167 5.32067L5.89489 0.35812C5.97767 0.275885 6.07602 0.211264 6.18407 0.168098C6.29213 0.124933 6.4077 0.104102 6.52391 0.10685Z" fill="white"/>
</svg>
