<svg width="34" height="35" viewBox="0 0 34 35" fill="none" xmlns="http://www.w3.org/2000/svg">
<circle cx="17.1628" cy="17.5964" r="16.7283" fill="url(#paint0_linear)"/>
<path d="M25.4048 9.38833C23.1991 7.25617 20.2969 6.05176 17.2061 6.05176C8.33499 6.05176 2.76469 15.6629 7.19442 23.3083L5.55371 29.2694L11.6822 27.6712C14.3522 29.1136 16.5395 28.9859 17.2119 29.0711C27.4982 29.0711 32.6187 16.6264 25.3903 9.42605L25.4048 9.38833Z" fill="#ECEFF1"/>
<path d="M17.2273 27.0945L17.2215 27.0936H17.206C14.1278 27.0936 12.161 25.6357 11.9676 25.5515L8.33981 26.4947L9.31205 22.9686L9.08084 22.6058C8.12311 21.0812 7.61426 19.3253 7.61426 17.5172C7.61426 9.01088 18.009 4.75722 24.0243 10.7696C30.0251 16.7191 25.812 27.0945 17.2273 27.0945Z" fill="url(#paint1_linear)"/>
<path d="M22.4897 19.8926L22.481 19.9651C22.1898 19.82 20.7716 19.1264 20.5075 19.0306C19.9144 18.811 20.0818 18.9958 18.9432 20.2999C18.7739 20.4885 18.6055 20.503 18.3182 20.3724C18.028 20.2273 17.0964 19.9226 15.9936 18.9358C15.1345 18.1667 14.5579 17.2235 14.3877 16.9333C14.1042 16.4438 14.6972 16.3741 15.237 15.3526C15.3338 15.1494 15.2845 14.9898 15.2129 14.8457C15.1403 14.7005 14.5628 13.2785 14.3209 12.7116C14.0887 12.1466 13.8498 12.2182 13.6708 12.2182C13.1136 12.1698 12.7063 12.1776 12.3474 12.551C10.786 14.2671 11.1798 16.0375 12.5157 17.9201C15.1413 21.3563 16.5401 21.9889 19.0979 22.8673C19.7887 23.0869 20.4185 23.056 20.9167 22.9844C21.472 22.8964 22.6261 22.2869 22.8669 21.6049C23.1136 20.9229 23.1136 20.3569 23.0411 20.2263C22.9695 20.0957 22.7799 20.0232 22.4897 19.8926Z" fill="#FAFAFA"/>
<defs>
<linearGradient id="paint0_linear" x1="33.8911" y1="17.5964" x2="1.31371" y2="17.5964" gradientUnits="userSpaceOnUse">
<stop stop-color="#FF0068"/>
<stop offset="1" stop-color="#750787"/>
</linearGradient>
<linearGradient id="paint1_linear" x1="26.8391" y1="17.5243" x2="8.11943" y2="17.5243" gradientUnits="userSpaceOnUse">
<stop stop-color="#FF0068"/>
<stop offset="1" stop-color="#750787"/>
</linearGradient>
</defs>
</svg>
