<svg width="35" height="34" viewBox="0 0 35 34" fill="none" xmlns="http://www.w3.org/2000/svg">
<circle cx="17.7009" cy="16.823" r="16.7283" fill="url(#paint0_linear)"/>
<path d="M24.7826 17.7427C24.4355 17.3043 24.5348 17.1093 24.7826 16.7175C24.7871 16.713 27.6526 12.7533 27.9478 11.4105L27.9496 11.4096C28.0963 10.9202 27.9496 10.5605 27.2402 10.5605H24.8926C24.295 10.5605 24.0195 10.8692 23.8718 11.2145C23.8718 11.2145 22.6766 14.0756 20.9857 15.9302C20.44 16.4661 20.1877 16.6378 19.8898 16.6378C19.7431 16.6378 19.5149 16.4661 19.5149 15.9767V11.4096C19.5149 10.8227 19.3476 10.5605 18.8529 10.5605H15.1616C14.7868 10.5605 14.564 10.8343 14.564 11.0893C14.564 11.6457 15.4094 11.7737 15.4971 13.3393V16.7363C15.4971 17.4806 15.362 17.6175 15.0623 17.6175C14.2643 17.6175 12.3274 14.7448 11.1796 11.457C10.9479 10.8191 10.7215 10.5614 10.1194 10.5614H7.771C7.10091 10.5614 6.96582 10.8701 6.96582 11.2154C6.96582 11.8256 7.76384 14.8593 10.6768 18.8673C12.6182 21.6031 15.3522 23.0855 17.8393 23.0855C19.3342 23.0855 19.5167 22.7563 19.5167 22.19C19.5167 19.5758 19.3816 19.3289 20.1305 19.3289C20.4776 19.3289 21.0752 19.5007 22.4708 20.8203C24.066 22.385 24.3281 23.0855 25.221 23.0855H27.5685C28.2377 23.0855 28.5768 22.7563 28.3817 22.1068C27.9353 20.7407 24.9186 17.9306 24.7826 17.7427Z" fill="white"/>
<defs>
<linearGradient id="paint0_linear" x1="34.4292" y1="16.823" x2="1.8518" y2="16.823" gradientUnits="userSpaceOnUse">
<stop stop-color="#FF0068"/>
<stop offset="1" stop-color="#750787"/>
</linearGradient>
</defs>
</svg>
