<svg width="35" height="34" viewBox="0 0 35 34" fill="none" xmlns="http://www.w3.org/2000/svg">
<circle cx="17.3425" cy="16.823" r="16.7283" fill="url(#paint0_linear)"/>
<path d="M6.16626 23.3242C6.64371 25.0177 8.1043 25.3275 8.20173 25.387C10.6055 26.0417 24.0792 26.0437 26.519 25.387C28.1901 24.9037 28.497 23.4216 28.5545 23.3242C29.1908 19.9392 29.2327 15.5263 28.5253 11.6853L28.5545 11.8763C28.0771 10.1828 26.6165 9.87295 26.519 9.81351C24.1474 9.16945 10.6386 9.14509 8.20173 9.81351C6.53068 10.2978 6.22375 11.7788 6.16626 11.8763C5.48517 15.4337 5.45107 19.5154 6.16626 23.3242ZM15.0194 21.1582V14.052L21.1249 17.6105L15.0194 21.1582Z" fill="white"/>
<defs>
<linearGradient id="paint0_linear" x1="34.0708" y1="16.823" x2="1.4934" y2="16.823" gradientUnits="userSpaceOnUse">
<stop stop-color="#FF0068"/>
<stop offset="1" stop-color="#750787"/>
</linearGradient>
</defs>
</svg>
